<svg width="33" height="35" viewBox="0 0 33 35" fill="none" xmlns="http://www.w3.org/2000/svg">
<path d="M16.5 2V15.4795L20.125 11.6282L23.75 15.4795V2M2 5.85127C2 4.82985 2.38192 3.85027 3.06174 3.12801C3.74156 2.40576 4.66359 2 5.625 2H27.375C28.3364 2 29.2584 2.40576 29.9383 3.12801C30.6181 3.85027 31 4.82985 31 5.85127V28.9589C31 29.9803 30.6181 30.9599 29.9383 31.6822C29.2584 32.4044 28.3364 32.8102 27.375 32.8102H5.625C4.66359 32.8102 3.74156 32.4044 3.06174 31.6822C2.38192 30.9599 2 29.9803 2 28.9589V5.85127Z" stroke="#141414" stroke-width="3.08333" stroke-linecap="round" stroke-linejoin="round"/>
</svg>
