<svg width="14" height="17" viewBox="0 0 14 17" fill="none" xmlns="http://www.w3.org/2000/svg">
<path d="M4.29317 2.66667H2.62937C2.18811 2.66667 1.76491 2.84226 1.45289 3.15482C1.14087 3.46738 0.965576 3.89131 0.965576 4.33333V14.3333C0.965576 14.7754 1.14087 15.1993 1.45289 15.5118C1.76491 15.8244 2.18811 16 2.62937 16H10.9484C11.3896 16 11.8128 15.8244 12.1248 15.5118C12.4369 15.1993 12.6122 14.7754 12.6122 14.3333V4.33333C12.6122 3.89131 12.4369 3.46738 12.1248 3.15482C11.8128 2.84226 11.3896 2.66667 10.9484 2.66667H9.28457M4.29317 2.66667C4.29317 2.22464 4.46847 1.80072 4.78049 1.48816C5.09251 1.17559 5.5157 1 5.95697 1H7.62077C8.06204 1 8.48523 1.17559 8.79725 1.48816C9.10927 1.80072 9.28457 2.22464 9.28457 2.66667M4.29317 2.66667C4.29317 3.10869 4.46847 3.53262 4.78049 3.84518C5.09251 4.15774 5.5157 4.33333 5.95697 4.33333H7.62077C8.06204 4.33333 8.48523 4.15774 8.79725 3.84518C9.10927 3.53262 9.28457 3.10869 9.28457 2.66667M4.29317 8.5H9.28457M4.29317 11.8333H9.28457" stroke="#141414" stroke-width="1.5" stroke-linecap="round" stroke-linejoin="round"/>
</svg>
