<svg width="13" height="13" viewBox="0 0 13 13" fill="none" xmlns="http://www.w3.org/2000/svg">
<path d="M8.63889 6.5H6.5V3.44444M1 6.5C1 7.22227 1.14226 7.93747 1.41866 8.60476C1.69506 9.27205 2.10019 9.87836 2.61091 10.3891C3.12163 10.8998 3.72795 11.3049 4.39524 11.5813C5.06253 11.8577 5.77773 12 6.5 12C7.22227 12 7.93747 11.8577 8.60476 11.5813C9.27205 11.3049 9.87836 10.8998 10.3891 10.3891C10.8998 9.87836 11.3049 9.27205 11.5813 8.60476C11.8577 7.93747 12 7.22227 12 6.5C12 5.77773 11.8577 5.06253 11.5813 4.39524C11.3049 3.72795 10.8998 3.12163 10.3891 2.61091C9.87836 2.10019 9.27205 1.69506 8.60476 1.41866C7.93747 1.14226 7.22227 1 6.5 1C5.77773 1 5.06253 1.14226 4.39524 1.41866C3.72795 1.69506 3.12163 2.10019 2.61091 2.61091C2.10019 3.12163 1.69506 3.72795 1.41866 4.39524C1.14226 5.06253 1 5.77773 1 6.5Z" stroke="#141414" stroke-width="1.32" stroke-linecap="round" stroke-linejoin="round"/>
</svg>
