<svg width="17" height="17" viewBox="0 0 17 17" fill="none" xmlns="http://www.w3.org/2000/svg">
<g clip-path="url(#clip0_19_181)">
<path d="M6.85185 8.22221C6.85185 8.58565 6.99623 8.93421 7.25322 9.1912C7.51022 9.4482 7.85878 9.59258 8.22222 9.59258C8.58567 9.59258 8.93422 9.4482 9.19122 9.1912C9.44821 8.93421 9.59259 8.58565 9.59259 8.22221C9.59259 7.85876 9.44821 7.5102 9.19122 7.25321C8.93422 6.99621 8.58567 6.85184 8.22222 6.85184C7.85878 6.85184 7.51022 6.99621 7.25322 7.25321C6.99623 7.5102 6.85185 7.85876 6.85185 8.22221Z" stroke="#354052" stroke-width="1.37037" stroke-linecap="round" stroke-linejoin="round"/>
<path d="M14.3889 8.22221C12.7444 10.9629 10.6889 12.3333 8.22222 12.3333C5.75555 12.3333 3.7 10.9629 2.05555 8.22221C3.7 5.48147 5.75555 4.1111 8.22222 4.1111C10.6889 4.1111 12.7444 5.48147 14.3889 8.22221Z" stroke="#354052" stroke-width="1.37037" stroke-linecap="round" stroke-linejoin="round"/>
</g>
<defs>
<clipPath id="clip0_19_181">
<rect width="16.4444" height="16.4444" fill="white"/>
</clipPath>
</defs>
</svg>
