<svg width="14" height="16" viewBox="0 0 14 16" fill="none" xmlns="http://www.w3.org/2000/svg">
<path d="M8.71429 1V4.11111C8.71429 4.31739 8.80459 4.51522 8.96534 4.66108C9.12608 4.80694 9.3441 4.88889 9.57143 4.88889H13M8.71429 1H2.71429C2.25963 1 1.82359 1.16389 1.5021 1.45561C1.18061 1.74733 1 2.143 1 2.55556V13.4444C1 13.857 1.18061 14.2527 1.5021 14.5444C1.82359 14.8361 2.25963 15 2.71429 15H11.2857C11.7404 15 12.1764 14.8361 12.4979 14.5444C12.8194 14.2527 13 13.857 13 13.4444V4.88889M8.71429 1L13 4.88889M7 7.22222V11.8889M7 7.22222L4.85714 9.16667M7 7.22222L9.14286 9.16667" stroke="#141414" stroke-width="1.6" stroke-linecap="round" stroke-linejoin="round"/>
</svg>
