<svg width="12" height="17" viewBox="0 0 12 17" fill="none" xmlns="http://www.w3.org/2000/svg">
<path d="M1.41667 4.33333H10.5833M1.41667 12.6667H10.5833M6 8.5C4.67392 8.5 3.40215 9.02678 2.46447 9.96447C1.52678 10.9021 1 12.1739 1 13.5V15.1667C1 15.3877 1.0878 15.5996 1.24408 15.7559C1.40036 15.9122 1.61232 16 1.83333 16H10.1667C10.3877 16 10.5996 15.9122 10.7559 15.7559C10.9122 15.5996 11 15.3877 11 15.1667V13.5C11 12.1739 10.4732 10.9021 9.53553 9.96447C8.59785 9.02678 7.32608 8.5 6 8.5ZM6 8.5C4.67392 8.5 3.40215 7.97322 2.46447 7.03553C1.52678 6.09785 1 4.82608 1 3.5V1.83333C1 1.61232 1.0878 1.40036 1.24408 1.24408C1.40036 1.0878 1.61232 1 1.83333 1H10.1667C10.3877 1 10.5996 1.0878 10.7559 1.24408C10.9122 1.40036 11 1.61232 11 1.83333V3.5C11 4.82608 10.4732 6.09785 9.53553 7.03553C8.59785 7.97322 7.32608 8.5 6 8.5Z" stroke="#141414" stroke-width="1.47368" stroke-linecap="round" stroke-linejoin="round"/>
</svg>
