<svg width="43" height="43" viewBox="0 0 43 43" fill="none" xmlns="http://www.w3.org/2000/svg">
<path d="M25.0833 14.3333V10.75C25.0833 9.79965 24.7058 8.88821 24.0338 8.21621C23.3618 7.5442 22.4504 7.16667 21.5 7.16667H8.95833C8.00797 7.16667 7.09654 7.5442 6.42453 8.21621C5.75253 8.88821 5.375 9.79965 5.375 10.75V32.25C5.375 33.2004 5.75253 34.1118 6.42453 34.7838C7.09654 35.4558 8.00797 35.8333 8.95833 35.8333H21.5C22.4504 35.8333 23.3618 35.4558 24.0338 34.7838C24.7058 34.1118 25.0833 33.2004 25.0833 32.25V28.6667M35.8333 21.5H12.5417M12.5417 21.5L17.9167 16.125M12.5417 21.5L17.9167 26.875" stroke="#354052" stroke-width="3.58333" stroke-linecap="round" stroke-linejoin="round"/>
</svg>
