<svg width="15" height="15" viewBox="0 0 15 15" fill="none" xmlns="http://www.w3.org/2000/svg">
<path d="M9.62491 3.95833L5.02075 8.5625C4.73895 8.84429 4.58064 9.22648 4.58064 9.625C4.58064 10.0235 4.73895 10.4057 5.02075 10.6875C5.30254 10.9693 5.68473 11.1276 6.08325 11.1276C6.48176 11.1276 6.86395 10.9693 7.14575 10.6875L11.7499 6.08333C12.3135 5.51974 12.6301 4.75536 12.6301 3.95833C12.6301 3.1613 12.3135 2.39691 11.7499 1.83333C11.1863 1.26974 10.4219 0.953125 9.62491 0.953125C8.82788 0.953125 8.0635 1.26974 7.49991 1.83333L2.89575 6.4375C2.05037 7.28287 1.57544 8.42945 1.57544 9.625C1.57544 10.8205 2.05037 11.9671 2.89575 12.8125C3.74112 13.6579 4.8877 14.1328 6.08325 14.1328C7.27879 14.1328 8.42537 13.6579 9.27075 12.8125L13.8749 8.20833" stroke="#141414" stroke-width="1.41667" stroke-linecap="round" stroke-linejoin="round"/>
</svg>
