<svg width="18" height="15" viewBox="0 0 18 15" fill="none" xmlns="http://www.w3.org/2000/svg">
<path d="M5.375 13.25H2.75C2.28587 13.25 1.84075 13.0656 1.51256 12.7374C1.18437 12.4092 1 11.9641 1 11.5V2.75C1 2.28587 1.18437 1.84075 1.51256 1.51256C1.84075 1.18437 2.28587 1 2.75 1H15C15.4641 1 15.9092 1.18437 16.2374 1.51256C16.5656 1.84075 16.75 2.28587 16.75 2.75V12.375C16.75 12.6071 16.6578 12.8296 16.4937 12.9937C16.3296 13.1578 16.1071 13.25 15.875 13.25M8 11.5C8 11.2679 8.09219 11.0454 8.25628 10.8813C8.42038 10.7172 8.64294 10.625 8.875 10.625H12.375C12.6071 10.625 12.8296 10.7172 12.9937 10.8813C13.1578 11.0454 13.25 11.2679 13.25 11.5V12.375C13.25 12.6071 13.1578 12.8296 12.9937 12.9937C12.8296 13.1578 12.6071 13.25 12.375 13.25H8.875C8.64294 13.25 8.42038 13.1578 8.25628 12.9937C8.09219 12.8296 8 12.6071 8 12.375V11.5Z" stroke="#141414" stroke-width="1.75" stroke-linecap="round" stroke-linejoin="round"/>
</svg>
